<?xml version="1.0" encoding="utf-8"?>
<svg width="492" height="492" viewBox="0 0 492 492" xmlns="http://www.w3.org/2000/svg" xmlns:xlink="http://www.w3.org/1999/xlink">
<rect width="492" height="492" fill="#ffffff"/>
<defs>
<rect id="p" width="12" height="12" />
</defs>
<g>
<use x="24" y="24" xlink:href="#p" fill="#000000" />
<use x="36" y="24" xlink:href="#p" fill="#000000" />
<use x="48" y="24" xlink:href="#p" fill="#000000" />
<use x="60" y="24" xlink:href="#p" fill="#000000" />
<use x="72" y="24" xlink:href="#p" fill="#000000" />
<use x="84" y="24" xlink:href="#p" fill="#000000" />
<use x="96" y="24" xlink:href="#p" fill="#000000" />
<use x="132" y="24" xlink:href="#p" fill="#000000" />
<use x="156" y="24" xlink:href="#p" fill="#000000" />
<use x="228" y="24" xlink:href="#p" fill="#000000" />
<use x="240" y="24" xlink:href="#p" fill="#000000" />
<use x="264" y="24" xlink:href="#p" fill="#000000" />
<use x="276" y="24" xlink:href="#p" fill="#000000" />
<use x="288" y="24" xlink:href="#p" fill="#000000" />
<use x="300" y="24" xlink:href="#p" fill="#000000" />
<use x="312" y="24" xlink:href="#p" fill="#000000" />
<use x="384" y="24" xlink:href="#p" fill="#000000" />
<use x="396" y="24" xlink:href="#p" fill="#000000" />
<use x="408" y="24" xlink:href="#p" fill="#000000" />
<use x="420" y="24" xlink:href="#p" fill="#000000" />
<use x="432" y="24" xlink:href="#p" fill="#000000" />
<use x="444" y="24" xlink:href="#p" fill="#000000" />
<use x="456" y="24" xlink:href="#p" fill="#000000" />
<use x="24" y="36" xlink:href="#p" fill="#000000" />
<use x="96" y="36" xlink:href="#p" fill="#000000" />
<use x="120" y="36" xlink:href="#p" fill="#000000" />
<use x="180" y="36" xlink:href="#p" fill="#000000" />
<use x="192" y="36" xlink:href="#p" fill="#000000" />
<use x="204" y="36" xlink:href="#p" fill="#000000" />
<use x="216" y="36" xlink:href="#p" fill="#000000" />
<use x="228" y="36" xlink:href="#p" fill="#000000" />
<use x="240" y="36" xlink:href="#p" fill="#000000" />
<use x="252" y="36" xlink:href="#p" fill="#000000" />
<use x="300" y="36" xlink:href="#p" fill="#000000" />
<use x="312" y="36" xlink:href="#p" fill="#000000" />
<use x="324" y="36" xlink:href="#p" fill="#000000" />
<use x="336" y="36" xlink:href="#p" fill="#000000" />
<use x="348" y="36" xlink:href="#p" fill="#000000" />
<use x="384" y="36" xlink:href="#p" fill="#000000" />
<use x="456" y="36" xlink:href="#p" fill="#000000" />
<use x="24" y="48" xlink:href="#p" fill="#000000" />
<use x="48" y="48" xlink:href="#p" fill="#000000" />
<use x="60" y="48" xlink:href="#p" fill="#000000" />
<use x="72" y="48" xlink:href="#p" fill="#000000" />
<use x="96" y="48" xlink:href="#p" fill="#000000" />
<use x="132" y="48" xlink:href="#p" fill="#000000" />
<use x="144" y="48" xlink:href="#p" fill="#000000" />
<use x="204" y="48" xlink:href="#p" fill="#000000" />
<use x="264" y="48" xlink:href="#p" fill="#000000" />
<use x="288" y="48" xlink:href="#p" fill="#000000" />
<use x="348" y="48" xlink:href="#p" fill="#000000" />
<use x="360" y="48" xlink:href="#p" fill="#000000" />
<use x="384" y="48" xlink:href="#p" fill="#000000" />
<use x="408" y="48" xlink:href="#p" fill="#000000" />
<use x="420" y="48" xlink:href="#p" fill="#000000" />
<use x="432" y="48" xlink:href="#p" fill="#000000" />
<use x="456" y="48" xlink:href="#p" fill="#000000" />
<use x="24" y="60" xlink:href="#p" fill="#000000" />
<use x="48" y="60" xlink:href="#p" fill="#000000" />
<use x="60" y="60" xlink:href="#p" fill="#000000" />
<use x="72" y="60" xlink:href="#p" fill="#000000" />
<use x="96" y="60" xlink:href="#p" fill="#000000" />
<use x="132" y="60" xlink:href="#p" fill="#000000" />
<use x="144" y="60" xlink:href="#p" fill="#000000" />
<use x="168" y="60" xlink:href="#p" fill="#000000" />
<use x="180" y="60" xlink:href="#p" fill="#000000" />
<use x="192" y="60" xlink:href="#p" fill="#000000" />
<use x="240" y="60" xlink:href="#p" fill="#000000" />
<use x="252" y="60" xlink:href="#p" fill="#000000" />
<use x="276" y="60" xlink:href="#p" fill="#000000" />
<use x="288" y="60" xlink:href="#p" fill="#000000" />
<use x="300" y="60" xlink:href="#p" fill="#000000" />
<use x="312" y="60" xlink:href="#p" fill="#000000" />
<use x="336" y="60" xlink:href="#p" fill="#000000" />
<use x="348" y="60" xlink:href="#p" fill="#000000" />
<use x="360" y="60" xlink:href="#p" fill="#000000" />
<use x="384" y="60" xlink:href="#p" fill="#000000" />
<use x="408" y="60" xlink:href="#p" fill="#000000" />
<use x="420" y="60" xlink:href="#p" fill="#000000" />
<use x="432" y="60" xlink:href="#p" fill="#000000" />
<use x="456" y="60" xlink:href="#p" fill="#000000" />
<use x="24" y="72" xlink:href="#p" fill="#000000" />
<use x="48" y="72" xlink:href="#p" fill="#000000" />
<use x="60" y="72" xlink:href="#p" fill="#000000" />
<use x="72" y="72" xlink:href="#p" fill="#000000" />
<use x="96" y="72" xlink:href="#p" fill="#000000" />
<use x="120" y="72" xlink:href="#p" fill="#000000" />
<use x="132" y="72" xlink:href="#p" fill="#000000" />
<use x="156" y="72" xlink:href="#p" fill="#000000" />
<use x="168" y="72" xlink:href="#p" fill="#000000" />
<use x="228" y="72" xlink:href="#p" fill="#000000" />
<use x="240" y="72" xlink:href="#p" fill="#000000" />
<use x="252" y="72" xlink:href="#p" fill="#000000" />
<use x="288" y="72" xlink:href="#p" fill="#000000" />
<use x="300" y="72" xlink:href="#p" fill="#000000" />
<use x="348" y="72" xlink:href="#p" fill="#000000" />
<use x="384" y="72" xlink:href="#p" fill="#000000" />
<use x="408" y="72" xlink:href="#p" fill="#000000" />
<use x="420" y="72" xlink:href="#p" fill="#000000" />
<use x="432" y="72" xlink:href="#p" fill="#000000" />
<use x="456" y="72" xlink:href="#p" fill="#000000" />
<use x="24" y="84" xlink:href="#p" fill="#000000" />
<use x="96" y="84" xlink:href="#p" fill="#000000" />
<use x="144" y="84" xlink:href="#p" fill="#000000" />
<use x="168" y="84" xlink:href="#p" fill="#000000" />
<use x="192" y="84" xlink:href="#p" fill="#000000" />
<use x="204" y="84" xlink:href="#p" fill="#000000" />
<use x="216" y="84" xlink:href="#p" fill="#000000" />
<use x="240" y="84" xlink:href="#p" fill="#000000" />
<use x="252" y="84" xlink:href="#p" fill="#000000" />
<use x="264" y="84" xlink:href="#p" fill="#000000" />
<use x="276" y="84" xlink:href="#p" fill="#000000" />
<use x="300" y="84" xlink:href="#p" fill="#000000" />
<use x="312" y="84" xlink:href="#p" fill="#000000" />
<use x="348" y="84" xlink:href="#p" fill="#000000" />
<use x="360" y="84" xlink:href="#p" fill="#000000" />
<use x="384" y="84" xlink:href="#p" fill="#000000" />
<use x="456" y="84" xlink:href="#p" fill="#000000" />
<use x="24" y="96" xlink:href="#p" fill="#000000" />
<use x="36" y="96" xlink:href="#p" fill="#000000" />
<use x="48" y="96" xlink:href="#p" fill="#000000" />
<use x="60" y="96" xlink:href="#p" fill="#000000" />
<use x="72" y="96" xlink:href="#p" fill="#000000" />
<use x="84" y="96" xlink:href="#p" fill="#000000" />
<use x="96" y="96" xlink:href="#p" fill="#000000" />
<use x="120" y="96" xlink:href="#p" fill="#000000" />
<use x="144" y="96" xlink:href="#p" fill="#000000" />
<use x="168" y="96" xlink:href="#p" fill="#000000" />
<use x="192" y="96" xlink:href="#p" fill="#000000" />
<use x="216" y="96" xlink:href="#p" fill="#000000" />
<use x="240" y="96" xlink:href="#p" fill="#000000" />
<use x="264" y="96" xlink:href="#p" fill="#000000" />
<use x="288" y="96" xlink:href="#p" fill="#000000" />
<use x="312" y="96" xlink:href="#p" fill="#000000" />
<use x="336" y="96" xlink:href="#p" fill="#000000" />
<use x="360" y="96" xlink:href="#p" fill="#000000" />
<use x="384" y="96" xlink:href="#p" fill="#000000" />
<use x="396" y="96" xlink:href="#p" fill="#000000" />
<use x="408" y="96" xlink:href="#p" fill="#000000" />
<use x="420" y="96" xlink:href="#p" fill="#000000" />
<use x="432" y="96" xlink:href="#p" fill="#000000" />
<use x="444" y="96" xlink:href="#p" fill="#000000" />
<use x="456" y="96" xlink:href="#p" fill="#000000" />
<use x="132" y="108" xlink:href="#p" fill="#000000" />
<use x="144" y="108" xlink:href="#p" fill="#000000" />
<use x="156" y="108" xlink:href="#p" fill="#000000" />
<use x="168" y="108" xlink:href="#p" fill="#000000" />
<use x="180" y="108" xlink:href="#p" fill="#000000" />
<use x="192" y="108" xlink:href="#p" fill="#000000" />
<use x="204" y="108" xlink:href="#p" fill="#000000" />
<use x="276" y="108" xlink:href="#p" fill="#000000" />
<use x="300" y="108" xlink:href="#p" fill="#000000" />
<use x="324" y="108" xlink:href="#p" fill="#000000" />
<use x="360" y="108" xlink:href="#p" fill="#000000" />
<use x="24" y="120" xlink:href="#p" fill="#000000" />
<use x="48" y="120" xlink:href="#p" fill="#000000" />
<use x="72" y="120" xlink:href="#p" fill="#000000" />
<use x="96" y="120" xlink:href="#p" fill="#000000" />
<use x="144" y="120" xlink:href="#p" fill="#000000" />
<use x="168" y="120" xlink:href="#p" fill="#000000" />
<use x="180" y="120" xlink:href="#p" fill="#000000" />
<use x="192" y="120" xlink:href="#p" fill="#000000" />
<use x="204" y="120" xlink:href="#p" fill="#000000" />
<use x="264" y="120" xlink:href="#p" fill="#000000" />
<use x="276" y="120" xlink:href="#p" fill="#000000" />
<use x="288" y="120" xlink:href="#p" fill="#000000" />
<use x="312" y="120" xlink:href="#p" fill="#000000" />
<use x="348" y="120" xlink:href="#p" fill="#000000" />
<use x="408" y="120" xlink:href="#p" fill="#000000" />
<use x="444" y="120" xlink:href="#p" fill="#000000" />
<use x="24" y="132" xlink:href="#p" fill="#000000" />
<use x="60" y="132" xlink:href="#p" fill="#000000" />
<use x="72" y="132" xlink:href="#p" fill="#000000" />
<use x="120" y="132" xlink:href="#p" fill="#000000" />
<use x="132" y="132" xlink:href="#p" fill="#000000" />
<use x="144" y="132" xlink:href="#p" fill="#000000" />
<use x="156" y="132" xlink:href="#p" fill="#000000" />
<use x="168" y="132" xlink:href="#p" fill="#000000" />
<use x="204" y="132" xlink:href="#p" fill="#000000" />
<use x="252" y="132" xlink:href="#p" fill="#000000" />
<use x="276" y="132" xlink:href="#p" fill="#000000" />
<use x="288" y="132" xlink:href="#p" fill="#000000" />
<use x="312" y="132" xlink:href="#p" fill="#000000" />
<use x="324" y="132" xlink:href="#p" fill="#000000" />
<use x="336" y="132" xlink:href="#p" fill="#000000" />
<use x="360" y="132" xlink:href="#p" fill="#000000" />
<use x="372" y="132" xlink:href="#p" fill="#000000" />
<use x="456" y="132" xlink:href="#p" fill="#000000" />
<use x="24" y="144" xlink:href="#p" fill="#000000" />
<use x="36" y="144" xlink:href="#p" fill="#000000" />
<use x="60" y="144" xlink:href="#p" fill="#000000" />
<use x="96" y="144" xlink:href="#p" fill="#000000" />
<use x="108" y="144" xlink:href="#p" fill="#000000" />
<use x="156" y="144" xlink:href="#p" fill="#000000" />
<use x="168" y="144" xlink:href="#p" fill="#000000" />
<use x="180" y="144" xlink:href="#p" fill="#000000" />
<use x="192" y="144" xlink:href="#p" fill="#000000" />
<use x="240" y="144" xlink:href="#p" fill="#000000" />
<use x="264" y="144" xlink:href="#p" fill="#000000" />
<use x="276" y="144" xlink:href="#p" fill="#000000" />
<use x="288" y="144" xlink:href="#p" fill="#000000" />
<use x="312" y="144" xlink:href="#p" fill="#000000" />
<use x="336" y="144" xlink:href="#p" fill="#000000" />
<use x="372" y="144" xlink:href="#p" fill="#000000" />
<use x="384" y="144" xlink:href="#p" fill="#000000" />
<use x="396" y="144" xlink:href="#p" fill="#000000" />
<use x="444" y="144" xlink:href="#p" fill="#000000" />
<use x="456" y="144" xlink:href="#p" fill="#000000" />
<use x="60" y="156" xlink:href="#p" fill="#000000" />
<use x="72" y="156" xlink:href="#p" fill="#000000" />
<use x="84" y="156" xlink:href="#p" fill="#000000" />
<use x="108" y="156" xlink:href="#p" fill="#000000" />
<use x="156" y="156" xlink:href="#p" fill="#000000" />
<use x="204" y="156" xlink:href="#p" fill="#000000" />
<use x="228" y="156" xlink:href="#p" fill="#000000" />
<use x="264" y="156" xlink:href="#p" fill="#000000" />
<use x="276" y="156" xlink:href="#p" fill="#000000" />
<use x="300" y="156" xlink:href="#p" fill="#000000" />
<use x="324" y="156" xlink:href="#p" fill="#000000" />
<use x="372" y="156" xlink:href="#p" fill="#000000" />
<use x="384" y="156" xlink:href="#p" fill="#000000" />
<use x="396" y="156" xlink:href="#p" fill="#000000" />
<use x="444" y="156" xlink:href="#p" fill="#000000" />
<use x="24" y="168" xlink:href="#p" fill="#000000" />
<use x="60" y="168" xlink:href="#p" fill="#000000" />
<use x="72" y="168" xlink:href="#p" fill="#000000" />
<use x="84" y="168" xlink:href="#p" fill="#000000" />
<use x="96" y="168" xlink:href="#p" fill="#000000" />
<use x="108" y="168" xlink:href="#p" fill="#000000" />
<use x="144" y="168" xlink:href="#p" fill="#000000" />
<use x="180" y="168" xlink:href="#p" fill="#000000" />
<use x="252" y="168" xlink:href="#p" fill="#000000" />
<use x="276" y="168" xlink:href="#p" fill="#000000" />
<use x="288" y="168" xlink:href="#p" fill="#000000" />
<use x="324" y="168" xlink:href="#p" fill="#000000" />
<use x="384" y="168" xlink:href="#p" fill="#000000" />
<use x="420" y="168" xlink:href="#p" fill="#000000" />
<use x="432" y="168" xlink:href="#p" fill="#000000" />
<use x="24" y="180" xlink:href="#p" fill="#000000" />
<use x="36" y="180" xlink:href="#p" fill="#000000" />
<use x="60" y="180" xlink:href="#p" fill="#000000" />
<use x="84" y="180" xlink:href="#p" fill="#000000" />
<use x="108" y="180" xlink:href="#p" fill="#000000" />
<use x="192" y="180" xlink:href="#p" fill="#000000" />
<use x="204" y="180" xlink:href="#p" fill="#000000" />
<use x="216" y="180" xlink:href="#p" fill="#000000" />
<use x="228" y="180" xlink:href="#p" fill="#000000" />
<use x="252" y="180" xlink:href="#p" fill="#000000" />
<use x="264" y="180" xlink:href="#p" fill="#000000" />
<use x="276" y="180" xlink:href="#p" fill="#000000" />
<use x="288" y="180" xlink:href="#p" fill="#000000" />
<use x="312" y="180" xlink:href="#p" fill="#000000" />
<use x="324" y="180" xlink:href="#p" fill="#000000" />
<use x="336" y="180" xlink:href="#p" fill="#000000" />
<use x="348" y="180" xlink:href="#p" fill="#000000" />
<use x="360" y="180" xlink:href="#p" fill="#000000" />
<use x="384" y="180" xlink:href="#p" fill="#000000" />
<use x="420" y="180" xlink:href="#p" fill="#000000" />
<use x="456" y="180" xlink:href="#p" fill="#000000" />
<use x="24" y="192" xlink:href="#p" fill="#000000" />
<use x="48" y="192" xlink:href="#p" fill="#000000" />
<use x="72" y="192" xlink:href="#p" fill="#000000" />
<use x="96" y="192" xlink:href="#p" fill="#000000" />
<use x="108" y="192" xlink:href="#p" fill="#000000" />
<use x="180" y="192" xlink:href="#p" fill="#000000" />
<use x="192" y="192" xlink:href="#p" fill="#000000" />
<use x="240" y="192" xlink:href="#p" fill="#000000" />
<use x="264" y="192" xlink:href="#p" fill="#000000" />
<use x="324" y="192" xlink:href="#p" fill="#000000" />
<use x="336" y="192" xlink:href="#p" fill="#000000" />
<use x="372" y="192" xlink:href="#p" fill="#000000" />
<use x="384" y="192" xlink:href="#p" fill="#000000" />
<use x="432" y="192" xlink:href="#p" fill="#000000" />
<use x="456" y="192" xlink:href="#p" fill="#000000" />
<use x="24" y="204" xlink:href="#p" fill="#000000" />
<use x="36" y="204" xlink:href="#p" fill="#000000" />
<use x="60" y="204" xlink:href="#p" fill="#000000" />
<use x="72" y="204" xlink:href="#p" fill="#000000" />
<use x="84" y="204" xlink:href="#p" fill="#000000" />
<use x="108" y="204" xlink:href="#p" fill="#000000" />
<use x="144" y="204" xlink:href="#p" fill="#000000" />
<use x="180" y="204" xlink:href="#p" fill="#000000" />
<use x="204" y="204" xlink:href="#p" fill="#000000" />
<use x="216" y="204" xlink:href="#p" fill="#000000" />
<use x="228" y="204" xlink:href="#p" fill="#000000" />
<use x="240" y="204" xlink:href="#p" fill="#000000" />
<use x="252" y="204" xlink:href="#p" fill="#000000" />
<use x="264" y="204" xlink:href="#p" fill="#000000" />
<use x="300" y="204" xlink:href="#p" fill="#000000" />
<use x="324" y="204" xlink:href="#p" fill="#000000" />
<use x="336" y="204" xlink:href="#p" fill="#000000" />
<use x="384" y="204" xlink:href="#p" fill="#000000" />
<use x="396" y="204" xlink:href="#p" fill="#000000" />
<use x="420" y="204" xlink:href="#p" fill="#000000" />
<use x="456" y="204" xlink:href="#p" fill="#000000" />
<use x="24" y="216" xlink:href="#p" fill="#000000" />
<use x="36" y="216" xlink:href="#p" fill="#000000" />
<use x="72" y="216" xlink:href="#p" fill="#000000" />
<use x="96" y="216" xlink:href="#p" fill="#000000" />
<use x="120" y="216" xlink:href="#p" fill="#000000" />
<use x="132" y="216" xlink:href="#p" fill="#000000" />
<use x="144" y="216" xlink:href="#p" fill="#000000" />
<use x="180" y="216" xlink:href="#p" fill="#000000" />
<use x="204" y="216" xlink:href="#p" fill="#000000" />
<use x="216" y="216" xlink:href="#p" fill="#000000" />
<use x="240" y="216" xlink:href="#p" fill="#000000" />
<use x="324" y="216" xlink:href="#p" fill="#000000" />
<use x="348" y="216" xlink:href="#p" fill="#000000" />
<use x="384" y="216" xlink:href="#p" fill="#000000" />
<use x="420" y="216" xlink:href="#p" fill="#000000" />
<use x="444" y="216" xlink:href="#p" fill="#000000" />
<use x="36" y="228" xlink:href="#p" fill="#000000" />
<use x="72" y="228" xlink:href="#p" fill="#000000" />
<use x="84" y="228" xlink:href="#p" fill="#000000" />
<use x="108" y="228" xlink:href="#p" fill="#000000" />
<use x="132" y="228" xlink:href="#p" fill="#000000" />
<use x="144" y="228" xlink:href="#p" fill="#000000" />
<use x="168" y="228" xlink:href="#p" fill="#000000" />
<use x="204" y="228" xlink:href="#p" fill="#000000" />
<use x="216" y="228" xlink:href="#p" fill="#000000" />
<use x="228" y="228" xlink:href="#p" fill="#000000" />
<use x="240" y="228" xlink:href="#p" fill="#000000" />
<use x="252" y="228" xlink:href="#p" fill="#000000" />
<use x="264" y="228" xlink:href="#p" fill="#000000" />
<use x="276" y="228" xlink:href="#p" fill="#000000" />
<use x="312" y="228" xlink:href="#p" fill="#000000" />
<use x="324" y="228" xlink:href="#p" fill="#000000" />
<use x="336" y="228" xlink:href="#p" fill="#000000" />
<use x="348" y="228" xlink:href="#p" fill="#000000" />
<use x="360" y="228" xlink:href="#p" fill="#000000" />
<use x="384" y="228" xlink:href="#p" fill="#000000" />
<use x="456" y="228" xlink:href="#p" fill="#000000" />
<use x="48" y="240" xlink:href="#p" fill="#000000" />
<use x="96" y="240" xlink:href="#p" fill="#000000" />
<use x="108" y="240" xlink:href="#p" fill="#000000" />
<use x="132" y="240" xlink:href="#p" fill="#000000" />
<use x="144" y="240" xlink:href="#p" fill="#000000" />
<use x="156" y="240" xlink:href="#p" fill="#000000" />
<use x="168" y="240" xlink:href="#p" fill="#000000" />
<use x="180" y="240" xlink:href="#p" fill="#000000" />
<use x="204" y="240" xlink:href="#p" fill="#000000" />
<use x="216" y="240" xlink:href="#p" fill="#000000" />
<use x="228" y="240" xlink:href="#p" fill="#000000" />
<use x="240" y="240" xlink:href="#p" fill="#000000" />
<use x="264" y="240" xlink:href="#p" fill="#000000" />
<use x="276" y="240" xlink:href="#p" fill="#000000" />
<use x="324" y="240" xlink:href="#p" fill="#000000" />
<use x="336" y="240" xlink:href="#p" fill="#000000" />
<use x="360" y="240" xlink:href="#p" fill="#000000" />
<use x="384" y="240" xlink:href="#p" fill="#000000" />
<use x="396" y="240" xlink:href="#p" fill="#000000" />
<use x="444" y="240" xlink:href="#p" fill="#000000" />
<use x="456" y="240" xlink:href="#p" fill="#000000" />
<use x="36" y="252" xlink:href="#p" fill="#000000" />
<use x="72" y="252" xlink:href="#p" fill="#000000" />
<use x="108" y="252" xlink:href="#p" fill="#000000" />
<use x="132" y="252" xlink:href="#p" fill="#000000" />
<use x="144" y="252" xlink:href="#p" fill="#000000" />
<use x="156" y="252" xlink:href="#p" fill="#000000" />
<use x="168" y="252" xlink:href="#p" fill="#000000" />
<use x="180" y="252" xlink:href="#p" fill="#000000" />
<use x="192" y="252" xlink:href="#p" fill="#000000" />
<use x="216" y="252" xlink:href="#p" fill="#000000" />
<use x="228" y="252" xlink:href="#p" fill="#000000" />
<use x="240" y="252" xlink:href="#p" fill="#000000" />
<use x="252" y="252" xlink:href="#p" fill="#000000" />
<use x="276" y="252" xlink:href="#p" fill="#000000" />
<use x="288" y="252" xlink:href="#p" fill="#000000" />
<use x="324" y="252" xlink:href="#p" fill="#000000" />
<use x="372" y="252" xlink:href="#p" fill="#000000" />
<use x="408" y="252" xlink:href="#p" fill="#000000" />
<use x="456" y="252" xlink:href="#p" fill="#000000" />
<use x="36" y="264" xlink:href="#p" fill="#000000" />
<use x="96" y="264" xlink:href="#p" fill="#000000" />
<use x="108" y="264" xlink:href="#p" fill="#000000" />
<use x="120" y="264" xlink:href="#p" fill="#000000" />
<use x="132" y="264" xlink:href="#p" fill="#000000" />
<use x="168" y="264" xlink:href="#p" fill="#000000" />
<use x="192" y="264" xlink:href="#p" fill="#000000" />
<use x="204" y="264" xlink:href="#p" fill="#000000" />
<use x="216" y="264" xlink:href="#p" fill="#000000" />
<use x="264" y="264" xlink:href="#p" fill="#000000" />
<use x="276" y="264" xlink:href="#p" fill="#000000" />
<use x="324" y="264" xlink:href="#p" fill="#000000" />
<use x="348" y="264" xlink:href="#p" fill="#000000" />
<use x="360" y="264" xlink:href="#p" fill="#000000" />
<use x="372" y="264" xlink:href="#p" fill="#000000" />
<use x="384" y="264" xlink:href="#p" fill="#000000" />
<use x="396" y="264" xlink:href="#p" fill="#000000" />
<use x="432" y="264" xlink:href="#p" fill="#000000" />
<use x="444" y="264" xlink:href="#p" fill="#000000" />
<use x="456" y="264" xlink:href="#p" fill="#000000" />
<use x="24" y="276" xlink:href="#p" fill="#000000" />
<use x="48" y="276" xlink:href="#p" fill="#000000" />
<use x="60" y="276" xlink:href="#p" fill="#000000" />
<use x="72" y="276" xlink:href="#p" fill="#000000" />
<use x="108" y="276" xlink:href="#p" fill="#000000" />
<use x="132" y="276" xlink:href="#p" fill="#000000" />
<use x="144" y="276" xlink:href="#p" fill="#000000" />
<use x="180" y="276" xlink:href="#p" fill="#000000" />
<use x="216" y="276" xlink:href="#p" fill="#000000" />
<use x="240" y="276" xlink:href="#p" fill="#000000" />
<use x="252" y="276" xlink:href="#p" fill="#000000" />
<use x="264" y="276" xlink:href="#p" fill="#000000" />
<use x="276" y="276" xlink:href="#p" fill="#000000" />
<use x="324" y="276" xlink:href="#p" fill="#000000" />
<use x="336" y="276" xlink:href="#p" fill="#000000" />
<use x="360" y="276" xlink:href="#p" fill="#000000" />
<use x="384" y="276" xlink:href="#p" fill="#000000" />
<use x="396" y="276" xlink:href="#p" fill="#000000" />
<use x="420" y="276" xlink:href="#p" fill="#000000" />
<use x="432" y="276" xlink:href="#p" fill="#000000" />
<use x="444" y="276" xlink:href="#p" fill="#000000" />
<use x="456" y="276" xlink:href="#p" fill="#000000" />
<use x="60" y="288" xlink:href="#p" fill="#000000" />
<use x="72" y="288" xlink:href="#p" fill="#000000" />
<use x="96" y="288" xlink:href="#p" fill="#000000" />
<use x="108" y="288" xlink:href="#p" fill="#000000" />
<use x="120" y="288" xlink:href="#p" fill="#000000" />
<use x="132" y="288" xlink:href="#p" fill="#000000" />
<use x="156" y="288" xlink:href="#p" fill="#000000" />
<use x="168" y="288" xlink:href="#p" fill="#000000" />
<use x="180" y="288" xlink:href="#p" fill="#000000" />
<use x="192" y="288" xlink:href="#p" fill="#000000" />
<use x="228" y="288" xlink:href="#p" fill="#000000" />
<use x="312" y="288" xlink:href="#p" fill="#000000" />
<use x="324" y="288" xlink:href="#p" fill="#000000" />
<use x="336" y="288" xlink:href="#p" fill="#000000" />
<use x="360" y="288" xlink:href="#p" fill="#000000" />
<use x="444" y="288" xlink:href="#p" fill="#000000" />
<use x="456" y="288" xlink:href="#p" fill="#000000" />
<use x="48" y="300" xlink:href="#p" fill="#000000" />
<use x="60" y="300" xlink:href="#p" fill="#000000" />
<use x="72" y="300" xlink:href="#p" fill="#000000" />
<use x="84" y="300" xlink:href="#p" fill="#000000" />
<use x="108" y="300" xlink:href="#p" fill="#000000" />
<use x="132" y="300" xlink:href="#p" fill="#000000" />
<use x="156" y="300" xlink:href="#p" fill="#000000" />
<use x="204" y="300" xlink:href="#p" fill="#000000" />
<use x="216" y="300" xlink:href="#p" fill="#000000" />
<use x="252" y="300" xlink:href="#p" fill="#000000" />
<use x="324" y="300" xlink:href="#p" fill="#000000" />
<use x="420" y="300" xlink:href="#p" fill="#000000" />
<use x="456" y="300" xlink:href="#p" fill="#000000" />
<use x="36" y="312" xlink:href="#p" fill="#000000" />
<use x="72" y="312" xlink:href="#p" fill="#000000" />
<use x="84" y="312" xlink:href="#p" fill="#000000" />
<use x="96" y="312" xlink:href="#p" fill="#000000" />
<use x="108" y="312" xlink:href="#p" fill="#000000" />
<use x="120" y="312" xlink:href="#p" fill="#000000" />
<use x="132" y="312" xlink:href="#p" fill="#000000" />
<use x="168" y="312" xlink:href="#p" fill="#000000" />
<use x="180" y="312" xlink:href="#p" fill="#000000" />
<use x="252" y="312" xlink:href="#p" fill="#000000" />
<use x="264" y="312" xlink:href="#p" fill="#000000" />
<use x="288" y="312" xlink:href="#p" fill="#000000" />
<use x="348" y="312" xlink:href="#p" fill="#000000" />
<use x="372" y="312" xlink:href="#p" fill="#000000" />
<use x="384" y="312" xlink:href="#p" fill="#000000" />
<use x="396" y="312" xlink:href="#p" fill="#000000" />
<use x="408" y="312" xlink:href="#p" fill="#000000" />
<use x="444" y="312" xlink:href="#p" fill="#000000" />
<use x="456" y="312" xlink:href="#p" fill="#000000" />
<use x="60" y="324" xlink:href="#p" fill="#000000" />
<use x="72" y="324" xlink:href="#p" fill="#000000" />
<use x="84" y="324" xlink:href="#p" fill="#000000" />
<use x="108" y="324" xlink:href="#p" fill="#000000" />
<use x="120" y="324" xlink:href="#p" fill="#000000" />
<use x="132" y="324" xlink:href="#p" fill="#000000" />
<use x="192" y="324" xlink:href="#p" fill="#000000" />
<use x="204" y="324" xlink:href="#p" fill="#000000" />
<use x="252" y="324" xlink:href="#p" fill="#000000" />
<use x="276" y="324" xlink:href="#p" fill="#000000" />
<use x="300" y="324" xlink:href="#p" fill="#000000" />
<use x="312" y="324" xlink:href="#p" fill="#000000" />
<use x="324" y="324" xlink:href="#p" fill="#000000" />
<use x="360" y="324" xlink:href="#p" fill="#000000" />
<use x="372" y="324" xlink:href="#p" fill="#000000" />
<use x="432" y="324" xlink:href="#p" fill="#000000" />
<use x="456" y="324" xlink:href="#p" fill="#000000" />
<use x="24" y="336" xlink:href="#p" fill="#000000" />
<use x="84" y="336" xlink:href="#p" fill="#000000" />
<use x="96" y="336" xlink:href="#p" fill="#000000" />
<use x="120" y="336" xlink:href="#p" fill="#000000" />
<use x="156" y="336" xlink:href="#p" fill="#000000" />
<use x="192" y="336" xlink:href="#p" fill="#000000" />
<use x="228" y="336" xlink:href="#p" fill="#000000" />
<use x="312" y="336" xlink:href="#p" fill="#000000" />
<use x="324" y="336" xlink:href="#p" fill="#000000" />
<use x="360" y="336" xlink:href="#p" fill="#000000" />
<use x="408" y="336" xlink:href="#p" fill="#000000" />
<use x="444" y="336" xlink:href="#p" fill="#000000" />
<use x="456" y="336" xlink:href="#p" fill="#000000" />
<use x="36" y="348" xlink:href="#p" fill="#000000" />
<use x="48" y="348" xlink:href="#p" fill="#000000" />
<use x="84" y="348" xlink:href="#p" fill="#000000" />
<use x="108" y="348" xlink:href="#p" fill="#000000" />
<use x="120" y="348" xlink:href="#p" fill="#000000" />
<use x="144" y="348" xlink:href="#p" fill="#000000" />
<use x="156" y="348" xlink:href="#p" fill="#000000" />
<use x="168" y="348" xlink:href="#p" fill="#000000" />
<use x="204" y="348" xlink:href="#p" fill="#000000" />
<use x="228" y="348" xlink:href="#p" fill="#000000" />
<use x="240" y="348" xlink:href="#p" fill="#000000" />
<use x="252" y="348" xlink:href="#p" fill="#000000" />
<use x="264" y="348" xlink:href="#p" fill="#000000" />
<use x="276" y="348" xlink:href="#p" fill="#000000" />
<use x="288" y="348" xlink:href="#p" fill="#000000" />
<use x="300" y="348" xlink:href="#p" fill="#000000" />
<use x="324" y="348" xlink:href="#p" fill="#000000" />
<use x="396" y="348" xlink:href="#p" fill="#000000" />
<use x="456" y="348" xlink:href="#p" fill="#000000" />
<use x="24" y="360" xlink:href="#p" fill="#000000" />
<use x="72" y="360" xlink:href="#p" fill="#000000" />
<use x="96" y="360" xlink:href="#p" fill="#000000" />
<use x="120" y="360" xlink:href="#p" fill="#000000" />
<use x="132" y="360" xlink:href="#p" fill="#000000" />
<use x="144" y="360" xlink:href="#p" fill="#000000" />
<use x="156" y="360" xlink:href="#p" fill="#000000" />
<use x="180" y="360" xlink:href="#p" fill="#000000" />
<use x="192" y="360" xlink:href="#p" fill="#000000" />
<use x="252" y="360" xlink:href="#p" fill="#000000" />
<use x="264" y="360" xlink:href="#p" fill="#000000" />
<use x="276" y="360" xlink:href="#p" fill="#000000" />
<use x="324" y="360" xlink:href="#p" fill="#000000" />
<use x="336" y="360" xlink:href="#p" fill="#000000" />
<use x="360" y="360" xlink:href="#p" fill="#000000" />
<use x="372" y="360" xlink:href="#p" fill="#000000" />
<use x="384" y="360" xlink:href="#p" fill="#000000" />
<use x="396" y="360" xlink:href="#p" fill="#000000" />
<use x="408" y="360" xlink:href="#p" fill="#000000" />
<use x="432" y="360" xlink:href="#p" fill="#000000" />
<use x="456" y="360" xlink:href="#p" fill="#000000" />
<use x="120" y="372" xlink:href="#p" fill="#000000" />
<use x="204" y="372" xlink:href="#p" fill="#000000" />
<use x="216" y="372" xlink:href="#p" fill="#000000" />
<use x="228" y="372" xlink:href="#p" fill="#000000" />
<use x="240" y="372" xlink:href="#p" fill="#000000" />
<use x="264" y="372" xlink:href="#p" fill="#000000" />
<use x="312" y="372" xlink:href="#p" fill="#000000" />
<use x="324" y="372" xlink:href="#p" fill="#000000" />
<use x="360" y="372" xlink:href="#p" fill="#000000" />
<use x="408" y="372" xlink:href="#p" fill="#000000" />
<use x="432" y="372" xlink:href="#p" fill="#000000" />
<use x="456" y="372" xlink:href="#p" fill="#000000" />
<use x="24" y="384" xlink:href="#p" fill="#000000" />
<use x="36" y="384" xlink:href="#p" fill="#000000" />
<use x="48" y="384" xlink:href="#p" fill="#000000" />
<use x="60" y="384" xlink:href="#p" fill="#000000" />
<use x="72" y="384" xlink:href="#p" fill="#000000" />
<use x="84" y="384" xlink:href="#p" fill="#000000" />
<use x="96" y="384" xlink:href="#p" fill="#000000" />
<use x="168" y="384" xlink:href="#p" fill="#000000" />
<use x="192" y="384" xlink:href="#p" fill="#000000" />
<use x="216" y="384" xlink:href="#p" fill="#000000" />
<use x="240" y="384" xlink:href="#p" fill="#000000" />
<use x="264" y="384" xlink:href="#p" fill="#000000" />
<use x="276" y="384" xlink:href="#p" fill="#000000" />
<use x="288" y="384" xlink:href="#p" fill="#000000" />
<use x="324" y="384" xlink:href="#p" fill="#000000" />
<use x="348" y="384" xlink:href="#p" fill="#000000" />
<use x="360" y="384" xlink:href="#p" fill="#000000" />
<use x="384" y="384" xlink:href="#p" fill="#000000" />
<use x="408" y="384" xlink:href="#p" fill="#000000" />
<use x="420" y="384" xlink:href="#p" fill="#000000" />
<use x="456" y="384" xlink:href="#p" fill="#000000" />
<use x="24" y="396" xlink:href="#p" fill="#000000" />
<use x="96" y="396" xlink:href="#p" fill="#000000" />
<use x="132" y="396" xlink:href="#p" fill="#000000" />
<use x="168" y="396" xlink:href="#p" fill="#000000" />
<use x="180" y="396" xlink:href="#p" fill="#000000" />
<use x="192" y="396" xlink:href="#p" fill="#000000" />
<use x="228" y="396" xlink:href="#p" fill="#000000" />
<use x="240" y="396" xlink:href="#p" fill="#000000" />
<use x="252" y="396" xlink:href="#p" fill="#000000" />
<use x="264" y="396" xlink:href="#p" fill="#000000" />
<use x="276" y="396" xlink:href="#p" fill="#000000" />
<use x="324" y="396" xlink:href="#p" fill="#000000" />
<use x="336" y="396" xlink:href="#p" fill="#000000" />
<use x="360" y="396" xlink:href="#p" fill="#000000" />
<use x="408" y="396" xlink:href="#p" fill="#000000" />
<use x="420" y="396" xlink:href="#p" fill="#000000" />
<use x="444" y="396" xlink:href="#p" fill="#000000" />
<use x="456" y="396" xlink:href="#p" fill="#000000" />
<use x="24" y="408" xlink:href="#p" fill="#000000" />
<use x="48" y="408" xlink:href="#p" fill="#000000" />
<use x="60" y="408" xlink:href="#p" fill="#000000" />
<use x="72" y="408" xlink:href="#p" fill="#000000" />
<use x="96" y="408" xlink:href="#p" fill="#000000" />
<use x="120" y="408" xlink:href="#p" fill="#000000" />
<use x="168" y="408" xlink:href="#p" fill="#000000" />
<use x="216" y="408" xlink:href="#p" fill="#000000" />
<use x="240" y="408" xlink:href="#p" fill="#000000" />
<use x="276" y="408" xlink:href="#p" fill="#000000" />
<use x="288" y="408" xlink:href="#p" fill="#000000" />
<use x="360" y="408" xlink:href="#p" fill="#000000" />
<use x="372" y="408" xlink:href="#p" fill="#000000" />
<use x="384" y="408" xlink:href="#p" fill="#000000" />
<use x="396" y="408" xlink:href="#p" fill="#000000" />
<use x="408" y="408" xlink:href="#p" fill="#000000" />
<use x="456" y="408" xlink:href="#p" fill="#000000" />
<use x="24" y="420" xlink:href="#p" fill="#000000" />
<use x="48" y="420" xlink:href="#p" fill="#000000" />
<use x="60" y="420" xlink:href="#p" fill="#000000" />
<use x="72" y="420" xlink:href="#p" fill="#000000" />
<use x="96" y="420" xlink:href="#p" fill="#000000" />
<use x="132" y="420" xlink:href="#p" fill="#000000" />
<use x="144" y="420" xlink:href="#p" fill="#000000" />
<use x="156" y="420" xlink:href="#p" fill="#000000" />
<use x="168" y="420" xlink:href="#p" fill="#000000" />
<use x="204" y="420" xlink:href="#p" fill="#000000" />
<use x="216" y="420" xlink:href="#p" fill="#000000" />
<use x="240" y="420" xlink:href="#p" fill="#000000" />
<use x="276" y="420" xlink:href="#p" fill="#000000" />
<use x="288" y="420" xlink:href="#p" fill="#000000" />
<use x="312" y="420" xlink:href="#p" fill="#000000" />
<use x="360" y="420" xlink:href="#p" fill="#000000" />
<use x="396" y="420" xlink:href="#p" fill="#000000" />
<use x="408" y="420" xlink:href="#p" fill="#000000" />
<use x="444" y="420" xlink:href="#p" fill="#000000" />
<use x="24" y="432" xlink:href="#p" fill="#000000" />
<use x="48" y="432" xlink:href="#p" fill="#000000" />
<use x="60" y="432" xlink:href="#p" fill="#000000" />
<use x="72" y="432" xlink:href="#p" fill="#000000" />
<use x="96" y="432" xlink:href="#p" fill="#000000" />
<use x="120" y="432" xlink:href="#p" fill="#000000" />
<use x="156" y="432" xlink:href="#p" fill="#000000" />
<use x="192" y="432" xlink:href="#p" fill="#000000" />
<use x="204" y="432" xlink:href="#p" fill="#000000" />
<use x="216" y="432" xlink:href="#p" fill="#000000" />
<use x="240" y="432" xlink:href="#p" fill="#000000" />
<use x="396" y="432" xlink:href="#p" fill="#000000" />
<use x="408" y="432" xlink:href="#p" fill="#000000" />
<use x="444" y="432" xlink:href="#p" fill="#000000" />
<use x="456" y="432" xlink:href="#p" fill="#000000" />
<use x="24" y="444" xlink:href="#p" fill="#000000" />
<use x="96" y="444" xlink:href="#p" fill="#000000" />
<use x="132" y="444" xlink:href="#p" fill="#000000" />
<use x="144" y="444" xlink:href="#p" fill="#000000" />
<use x="180" y="444" xlink:href="#p" fill="#000000" />
<use x="216" y="444" xlink:href="#p" fill="#000000" />
<use x="228" y="444" xlink:href="#p" fill="#000000" />
<use x="252" y="444" xlink:href="#p" fill="#000000" />
<use x="264" y="444" xlink:href="#p" fill="#000000" />
<use x="276" y="444" xlink:href="#p" fill="#000000" />
<use x="324" y="444" xlink:href="#p" fill="#000000" />
<use x="336" y="444" xlink:href="#p" fill="#000000" />
<use x="360" y="444" xlink:href="#p" fill="#000000" />
<use x="384" y="444" xlink:href="#p" fill="#000000" />
<use x="408" y="444" xlink:href="#p" fill="#000000" />
<use x="444" y="444" xlink:href="#p" fill="#000000" />
<use x="24" y="456" xlink:href="#p" fill="#000000" />
<use x="36" y="456" xlink:href="#p" fill="#000000" />
<use x="48" y="456" xlink:href="#p" fill="#000000" />
<use x="60" y="456" xlink:href="#p" fill="#000000" />
<use x="72" y="456" xlink:href="#p" fill="#000000" />
<use x="84" y="456" xlink:href="#p" fill="#000000" />
<use x="96" y="456" xlink:href="#p" fill="#000000" />
<use x="120" y="456" xlink:href="#p" fill="#000000" />
<use x="132" y="456" xlink:href="#p" fill="#000000" />
<use x="168" y="456" xlink:href="#p" fill="#000000" />
<use x="204" y="456" xlink:href="#p" fill="#000000" />
<use x="216" y="456" xlink:href="#p" fill="#000000" />
<use x="252" y="456" xlink:href="#p" fill="#000000" />
<use x="264" y="456" xlink:href="#p" fill="#000000" />
<use x="276" y="456" xlink:href="#p" fill="#000000" />
<use x="312" y="456" xlink:href="#p" fill="#000000" />
<use x="324" y="456" xlink:href="#p" fill="#000000" />
<use x="348" y="456" xlink:href="#p" fill="#000000" />
<use x="360" y="456" xlink:href="#p" fill="#000000" />
<use x="372" y="456" xlink:href="#p" fill="#000000" />
<use x="396" y="456" xlink:href="#p" fill="#000000" />
<use x="420" y="456" xlink:href="#p" fill="#000000" />
<use x="432" y="456" xlink:href="#p" fill="#000000" />
<use x="444" y="456" xlink:href="#p" fill="#000000" />
<use x="456" y="456" xlink:href="#p" fill="#000000" />
</g>
</svg>